inDegrees=no
num_controls=7
num_derivatives=13
num_iterations=113
num_multipliers=7
num_parameters=0
num_slacks=7
num_states=26
objective=5.632163
objective_accelerations=0.871170
objective_balance=0.026019
objective_effort=0.200213
objective_height=4.437143
objective_ligament=0.097617
solver_duration=1299.920748
status=Solve_Succeeded
success=true
DataType=double
version=3
OpenSimVersion=4.4-2022-07-23-0e9fedc
endheader
time	/jointset/ground_pelvis/pelvis_tilt/value	/jointset/ground_pelvis/pelvis_tx/value	/jointset/ground_pelvis/pelvis_ty/value	/jointset/hip_l/hip_flexion_l/value	/jointset/hip_l/hip_adduction_l/value	/jointset/hip_l/hip_rotation_l/value	/jointset/back/lumbar_extension/value	/jointset/patellofemoral_l/patellar_flexion_l/value	/jointset/knee_l/knee_flexion_l/value	/jointset/knee_l/knee_adduction_l/value	/jointset/knee_l/knee_rotation_l/value	/jointset/ankle_l/ankle_angle_l/value	/jointset/subtalar_l/subtalar_angle_l/value	/jointset/ground_pelvis/pelvis_tilt/speed	/jointset/ground_pelvis/pelvis_tx/speed	/jointset/ground_pelvis/pelvis_ty/speed	/jointset/hip_l/hip_flexion_l/speed	/jointset/hip_l/hip_adduction_l/speed	/jointset/hip_l/hip_rotation_l/speed	/jointset/back/lumbar_extension/speed	/jointset/patellofemoral_l/patellar_flexion_l/speed	/jointset/knee_l/knee_flexion_l/speed	/jointset/knee_l/knee_adduction_l/speed	/jointset/knee_l/knee_rotation_l/speed	/jointset/ankle_l/ankle_angle_l/speed	/jointset/subtalar_l/subtalar_angle_l/speed	/forceset/tau_hip_flexion_l	/forceset/tau_hip_adduction_l	/forceset/tau_hip_rotation_l	/forceset/tau_knee_flexion_l	/forceset/tau_ankle_angle_l	/forceset/tau_subtalar_angle_l	/forceset/tau_lumbar_extension	lambda_cid13_p0	lambda_cid13_p1	lambda_cid13_p2	lambda_cid13_p3	lambda_cid13_p4	lambda_cid13_p5	lambda_cid14_p0	/jointset/ground_pelvis/pelvis_tilt/accel	/jointset/ground_pelvis/pelvis_tx/accel	/jointset/ground_pelvis/pelvis_ty/accel	/jointset/hip_l/hip_flexion_l/accel	/jointset/hip_l/hip_adduction_l/accel	/jointset/hip_l/hip_rotation_l/accel	/jointset/back/lumbar_extension/accel	/jointset/patellofemoral_l/patellar_flexion_l/accel	/jointset/knee_l/knee_flexion_l/accel	/jointset/knee_l/knee_adduction_l/accel	/jointset/knee_l/knee_rotation_l/accel	/jointset/ankle_l/ankle_angle_l/accel	/jointset/subtalar_l/subtalar_angle_l/accel	gamma_cid13_p0	gamma_cid13_p1	gamma_cid13_p2	gamma_cid13_p3	gamma_cid13_p4	gamma_cid13_p5	gamma_cid14_p0
1	-0.5390050335166698	-0.009871640452690221	0.5517398248724141	1.887719630461141	-0.3399149357088823	0.1601628650358111	-0.4363145930639195	1.60034965496986	1.600349654969717	0.07825668324397821	-0.1745109922524463	0.43417398485515	0.2592618346886792	-0.15148024708996	-0.008140232473373235	0.03515249266039472	0.03473733033109452	0.000138544563789456	-0.05893519740835904	1.110848959579253e-05	-0.1628837849186101	-0.1628837849185909	-0.007179273702273131	-1.45856603982264e-05	-0.0611495094149978	-0.03783350799457559	-0.2849151381001735	0.03674172894638636	-0.01681150441264885	-0.2720967861270902	-0.06269264455938404	0.006484366244012345	0.2341396482825978	-53.70133050464869	11.65940505660963	-7.934254739659301	10.77007679502049	-553.3267962142528	-60.05389995557545	-0.02323760924791967	1.717793324315551	0.1220157514050206	2.241302982557364	-7.313591501734735	-0.2978113881679412	-1.707739198405873	-0.02184128442010051	-5.945706771251079	-5.94570677125141	-0.9389739781797931	-0.03677459997292763	-0.8753879665218028	-1.01244562534353	-2.482345147941454e-09	-1.749195460446045e-07	-6.083595405362327e-08	-1.791126438977702e-08	-9.231458040671508e-09	-2.425857788958718e-07	5.19233861836327e-09
1.01	-0.5404346804045993	-0.009946917842171697	0.5522031909283631	1.887702394670613	-0.3399276063253796	0.1594903945472194	-0.4363146183590937	1.598423963209825	1.598423963209807	0.07813684308266196	-0.1745110755219515	0.4335187541257313	0.2588343019191394	-0.1344377308992425	-0.006905598474930744	0.05750998716461701	-0.03817036611929097	-0.002666437586453222	-0.07554902545506696	-1.584560034865654e-05	-0.2222443576206209	-0.2222443576205763	-0.01678054131280225	-2.259704274386293e-06	-0.0699078266597019	-0.04766191500126737	-0.2852370391479436	0.03674326696483436	-0.01682525449503351	-0.2712442412101345	-0.06273849103252295	0.006534980001197069	0.2342886110609084	-53.66975513345186	11.59648883217591	-7.88378212973688	10.59981030985791	-553.1023585058797	-59.95259569096502	-0.02325370348555097	1.699190759169369	0.1256283583906353	2.231359942242704	-7.277240435309194	-0.2708944172028215	-1.636734260418091	0.006925812455439266	-5.929702354266302	-5.929702354262244	-0.9694850820130798	0.02017453232018529	-0.8777428576256662	-0.9663224385922314	-2.858455434358077e-09	-2.226095153547688e-07	-9.041352259830997e-08	-2.942296251885953e-08	-1.51271808402e-08	-2.991367678708158e-07	6.263358301656035e-09
1.02	-0.5416935601320891	-0.01000956066480315	0.5528898093809322	1.886956505571879	-0.3399681373211225	0.1586520798476013	-0.4363149035383445	1.595904971755852	1.595904971755925	0.07792123385956055	-0.1745110478641316	0.432775602373038	0.2583088282394807	-0.1173268149997215	-0.0056133191033688	0.07980297198442921	-0.1109933313143946	-0.005433531286692363	-0.09210403960638332	-4.086834079801958e-05	-0.2815437237062394	-0.2815437237061705	-0.02633308610428708	7.599808446683235e-06	-0.07873371407164635	-0.05742169001837746	-0.2855589401954924	0.03674480498319722	-0.01683900457673662	-0.2703916962931848	-0.06278433750573229	0.006585593758184517	0.234437573839432	-53.64145144301378	11.53303654049601	-7.831957042244136	10.43086519280254	-552.9783990883677	-59.84379878636286	-0.02327128154131096	1.731473266076281	0.1335448260289032	2.228401045675326	-7.296645250678341	-0.2902336981673357	-1.695976419327633	-0.0214550145224116	-5.933465447972558	-5.933465447973137	-0.9292294143709683	-0.03726788865372122	-0.8889019999699098	-0.9987192274273679	-3.339909220902496e-09	-2.681894115038223e-07	-1.178022338341334e-07	-4.026206139137322e-08	-2.072360640815481e-08	-3.503500561237691e-07	6.874293167856675e-09
1.03	-0.5427809220141925	-0.01005893213619465	0.5537989485808921	1.88548294021446	-0.3400361173423317	0.1576485257704082	-0.4363154549868409	1.592793416243835	1.592793416243929	0.07761043420059081	-0.1745109385974656	0.4319438060979164	0.2576861457704416	-0.1001278489767734	-0.004245322754864406	0.1020055443559474	-0.183692952015283	-0.008152844260225564	-0.1085903323461933	-7.148192912400034e-05	-0.3407448425393798	-0.3407448425393071	-0.03581470918783415	1.429617714658673e-05	-0.08764120423672286	-0.06709849290815276	-0.2855682960650577	0.03673024516492784	-0.0168130278249464	-0.2694452728732608	-0.06259381913447709	0.006698451209713548	0.2344004634304587	-53.50405957661878	11.41635726564978	-7.763543422271533	10.15494961043199	-552.541809836571	-59.78889895527289	-0.02329491375083185	1.716764160682796	0.1407646178022306	2.213281487818599	-7.252603444177388	-0.2613137204901627	-1.62250531883796	0.005826378495341168	-5.910056177010167	-5.910056177009072	-0.9558300961337521	0.01959538870297784	-0.8940371425753909	-0.9496468243753515	-3.82243794112169e-09	-3.13747776294089e-07	-1.45168609791295e-07	-5.109429700616681e-08	-2.631697792272622e-08	-4.015088780428246e-07	7.48053329102576e-09
1.04	-0.5436957630580327	-0.01009415612839257	0.5549295327355529	1.88328318205716	-0.3401309972179838	0.1564805988422988	-0.4363163743890952	1.589090525328282	1.58909052532838	0.0772051780428442	-0.1745107709692938	0.4310224619975852	0.2569671980715807	-0.08282264734264637	-0.002783823264655302	0.1240919629246682	-0.2562318912914658	-0.01081350217550379	-0.1249786097872261	-0.0001144591380967872	-0.3998108044135383	-0.3998108044134591	-0.04522438590287699	1.927210868925932e-05	-0.09664327911375792	-0.07667473598284286	-0.2855776519344942	0.03671568534663917	-0.01678705107249847	-0.2684988494533302	-0.06240330076325994	0.006811308661175308	0.2343633530216058	-53.37023617190887	11.29925231124199	-7.693861678180649	9.881023434990741	-552.2067117978158	-59.72734988315108	-0.02331996529833669	1.752720388312069	0.1522454543698601	2.205170285115817	-7.264508965737228	-0.2785026865164657	-1.676373359572271	-0.02392773865230186	-5.906434056176173	-5.906434056176195	-0.9148401406701605	-0.03761197608544024	-0.907818942361611	-0.978607264410516	-4.308498327799701e-09	-3.558639103783823e-07	-1.694919657237256e-07	-6.085497939903086e-08	-3.157765903652992e-08	-4.465888732056196e-07	7.771342418554484e-09
1.05	-0.5444370048771077	-0.01011425459584189	0.5562803124947063	1.88035902243141	-0.3402521600214076	0.1551492732772927	-0.4363177978641806	1.584797744583213	1.584797744583278	0.07670628107418738	-0.1745105767032316	0.4300105393840744	0.2561530086236793	-0.06540738714143163	-0.001216034444358743	0.1460359451235294	-0.3285549347040522	-0.01340522078878434	-0.1412640318357229	-0.000172750277128179	-0.458713435752925	-0.4587134357529729	-0.05453922733524393	2.114862201506366e-05	-0.1057648057516797	-0.0861425330959785	-0.2852633890433793	0.03668941894750478	-0.01672285788171838	-0.2674551403743436	-0.06200435131550534	0.006987512846409217	0.2341264650779971	-53.13710784130018	11.12929894202427	-7.60667470855629	9.523723242189325	-551.5536332861285	-59.72085486879492	-0.02335180685048869	1.738676323914224	0.1620067484049568	2.18479820126481	-7.209439371803281	-0.2474001460951896	-1.60127712291699	0.002843036058004886	-5.877392958970143	-5.877392958989061	-0.9374681164204673	0.0192585775627855	-0.9178730545882906	-0.9276861914984271	-4.794669079054551e-09	-3.978724747531139e-07	-1.937202272803835e-07	-7.058217575370963e-08	-3.682794357530965e-08	-4.914789050322816e-07	8.052294327469448e-09
